<svg width="32" height="32" viewBox="0 0 32 32" fill="none" xmlns="http://www.w3.org/2000/svg">
<mask id="path-1-inside-1_245_7981" fill="white">
<path fill-rule="evenodd" clip-rule="evenodd" d="M6 4C4.89543 4 4 4.89543 4 6V13C4 14.1046 4.89543 15 6 15H13C14.1046 15 15 14.1046 15 13V6C15 4.89543 14.1046 4 13 4H6ZM22.5 28C25.5376 28 28 25.5376 28 22.5C28 19.4624 25.5376 17 22.5 17C19.4624 17 17 19.4624 17 22.5C17 25.5376 19.4624 28 22.5 28ZM4 19C4 17.8954 4.89543 17 6 17H13C14.1046 17 15 17.8954 15 19V26C15 27.1046 14.1046 28 13 28H6C4.89543 28 4 27.1046 4 26V19ZM19 4C17.8954 4 17 4.89543 17 6V13C17 14.1046 17.8954 15 19 15H26C27.1046 15 28 14.1046 28 13V6C28 4.89543 27.1046 4 26 4H19Z"/>
</mask>
<path d="M5.5 6C5.5 5.72386 5.72386 5.5 6 5.5V2.5C4.067 2.5 2.5 4.067 2.5 6H5.5ZM5.5 13V6H2.5V13H5.5ZM6 13.5C5.72386 13.5 5.5 13.2761 5.5 13H2.5C2.5 14.933 4.067 16.5 6 16.5V13.5ZM13 13.5H6V16.5H13V13.5ZM13.5 13C13.5 13.2761 13.2761 13.5 13 13.5V16.5C14.933 16.5 16.5 14.933 16.5 13H13.5ZM13.5 6V13H16.5V6H13.5ZM13 5.5C13.2761 5.5 13.5 5.72386 13.5 6H16.5C16.5 4.067 14.933 2.5 13 2.5V5.5ZM6 5.5H13V2.5H6V5.5ZM26.5 22.5C26.5 24.7091 24.7091 26.5 22.5 26.5V29.5C26.366 29.5 29.5 26.366 29.5 22.5H26.5ZM22.5 18.5C24.7091 18.5 26.5 20.2909 26.5 22.5H29.5C29.5 18.634 26.366 15.5 22.5 15.5V18.5ZM18.5 22.5C18.5 20.2909 20.2909 18.5 22.5 18.5V15.5C18.634 15.5 15.5 18.634 15.5 22.5H18.5ZM22.5 26.5C20.2909 26.5 18.5 24.7091 18.5 22.5H15.5C15.5 26.366 18.634 29.5 22.5 29.5V26.5ZM6 15.5C4.067 15.5 2.5 17.067 2.5 19H5.5C5.5 18.7239 5.72386 18.5 6 18.5V15.5ZM13 15.5H6V18.5H13V15.5ZM16.5 19C16.5 17.067 14.933 15.5 13 15.5V18.5C13.2761 18.5 13.5 18.7239 13.5 19H16.5ZM16.5 26V19H13.5V26H16.5ZM13 29.5C14.933 29.5 16.5 27.933 16.5 26H13.5C13.5 26.2761 13.2761 26.5 13 26.5V29.5ZM6 29.5H13V26.5H6V29.5ZM2.5 26C2.5 27.933 4.067 29.5 6 29.5V26.5C5.72386 26.5 5.5 26.2761 5.5 26H2.5ZM2.5 19V26H5.5V19H2.5ZM18.5 6C18.5 5.72386 18.7239 5.5 19 5.5V2.5C17.067 2.5 15.5 4.067 15.5 6H18.5ZM18.5 13V6H15.5V13H18.5ZM19 13.5C18.7239 13.5 18.5 13.2761 18.5 13H15.5C15.5 14.933 17.067 16.5 19 16.5V13.5ZM26 13.5H19V16.5H26V13.5ZM26.5 13C26.5 13.2761 26.2761 13.5 26 13.5V16.5C27.933 16.5 29.5 14.933 29.5 13H26.5ZM26.5 6V13H29.5V6H26.5ZM26 5.5C26.2761 5.5 26.5 5.72386 26.5 6H29.5C29.5 4.067 27.933 2.5 26 2.5V5.5ZM19 5.5H26V2.5H19V5.5Z" fill="white" mask="url(#path-1-inside-1_245_7981)"/>
</svg>
