<svg width="32" height="32" viewBox="0 0 32 32" fill="none" xmlns="http://www.w3.org/2000/svg">
<path fill-rule="evenodd" clip-rule="evenodd" d="M6 4C4.89543 4 4 4.89543 4 6V13C4 14.1046 4.89543 15 6 15H13C14.1046 15 15 14.1046 15 13V6C15 4.89543 14.1046 4 13 4H6ZM22.5 28C25.5376 28 28 25.5376 28 22.5C28 19.4624 25.5376 17 22.5 17C19.4624 17 17 19.4624 17 22.5C17 25.5376 19.4624 28 22.5 28ZM4 19C4 17.8954 4.89543 17 6 17H13C14.1046 17 15 17.8954 15 19V26C15 27.1046 14.1046 28 13 28H6C4.89543 28 4 27.1046 4 26V19ZM19 4C17.8954 4 17 4.89543 17 6V13C17 14.1046 17.8954 15 19 15H26C27.1046 15 28 14.1046 28 13V6C28 4.89543 27.1046 4 26 4H19Z" fill="white"/>
</svg>
