<svg width="40" height="40" viewBox="0 0 40 40" fill="none" xmlns="http://www.w3.org/2000/svg">
<g id="logo_&#229;&#155;&#190;&#229;&#189;&#162;" clip-path="url(#clip0_220_7607)">
<path id="Vector" fill-rule="evenodd" clip-rule="evenodd" d="M2.44502 18.4711C2.44502 18.4711 3.01175 12.6387 9.08657 9.20515C12.8485 6.91525 17.8889 6.23627 20.7208 5.89985C23.9929 5.32804 23.0363 0.955517 19.4538 0.908964C15.2357 0.876464 10.083 2.37408 5.69595 6.25735C1.46011 9.74272 -0.786455 16.9576 2.44502 18.4711Z" fill="url(#paint0_linear_220_7607)"/>
<path id="Vector_2" fill-rule="evenodd" clip-rule="evenodd" d="M14.116 24.4608C21.2509 22.3597 27.4018 18.0487 31.3565 11.5444C34.2069 6.97685 28.1913 3.89641 25.5628 8.03441C24.4957 9.78587 20.0582 16.1628 11.7139 18.985C2.81604 22.0505 0.973526 16.3183 0.973526 16.3183C0.465154 24.1648 6.90335 26.5847 14.116 24.4608ZM20.4756 33.4886C27.6502 31.0231 34.1839 25.9312 38.2809 19.1686C40.8228 14.3824 35.137 12.2005 32.4873 15.6586C30.6156 17.96 25.8723 23.1845 19.7329 26.2017C15.6863 28.3484 10.7997 29.1882 7.71852 28.6005C3.06271 27.9611 1.07697 24.1077 1.07697 24.1077C3.25987 34.5278 13.3866 35.9823 20.4756 33.4886ZM35.7373 26.6945C33.8922 28.46 30.3362 33.3569 23.1606 35.833C14.4962 38.7606 7.1792 35.6802 7.1792 35.6802C12.8588 40.7088 20.3544 40.852 26.6936 38.628C33.6853 36.0324 37.4729 31.7732 38.8468 29.2215C39.9007 26.6918 37.3031 25.196 35.7373 26.6945Z" fill="url(#paint1_linear_220_7607)"/>
</g>
<defs>
<linearGradient id="paint0_linear_220_7607" x1="17.5135" y1="2.7802" x2="0.791195" y2="16.6982" gradientUnits="userSpaceOnUse">
<stop stop-color="#1789F7"/>
<stop offset="0.2189" stop-color="#1584F4"/>
<stop offset="0.4734" stop-color="#1176EA"/>
<stop offset="0.7447" stop-color="#095FD9"/>
<stop offset="1" stop-color="#0042C5"/>
</linearGradient>
<linearGradient id="paint1_linear_220_7607" x1="4.448" y1="31.7672" x2="39.0912" y2="15.8619" gradientUnits="userSpaceOnUse">
<stop stop-color="#059FF2"/>
<stop offset="0.291" stop-color="#0F93F5"/>
<stop offset="0.8133" stop-color="#2874FB"/>
<stop offset="1" stop-color="#3267FE"/>
</linearGradient>
<clipPath id="clip0_220_7607">
<rect width="40" height="40" fill="white"/>
</clipPath>
</defs>
</svg>
