<svg width="56" height="40" viewBox="0 0 56 40" fill="none" xmlns="http://www.w3.org/2000/svg">
<path d="M2.73199 27.2262C2.08548 27.503 1.58466 27.9747 1.23774 28.6379C0.966385 29.1034 0.823427 30.1314 0.8125 31.6905V37.0525H2.62181V32.6224H9.12876V31.1936H2.62181V30.3633C2.64639 29.4134 3.017 28.7862 3.70721 28.5076C4.05323 28.3369 4.74617 28.247 5.89441 28.2237H9.12876V26.7949H5.60029C4.36556 26.7949 3.40035 26.9404 2.73199 27.2262ZM11.2923 37.0525H12.9878V29.6956H11.2923V37.0525ZM11.2923 28.4016H12.9878V26.7958H11.2923V28.4016ZM21.8012 30.2626C21.5581 30.0523 21.2849 29.9041 20.9908 29.8232C20.6803 29.7378 20.2159 29.6956 19.6104 29.6956H15.6403V37.0525H17.3358V30.8827H19.4802C19.9491 30.8827 20.2997 30.9932 20.5219 31.2116C20.7431 31.4299 20.856 31.7705 20.856 32.2216V37.0516H22.5515V32.4633C22.5506 31.4551 22.2975 30.7128 21.8012 30.2626ZM25.0893 37.0525H26.7848V26.7949H25.0893V37.0525ZM32.871 29.5824C31.5553 29.5923 30.5382 29.9823 29.8489 30.7416C29.2288 31.4218 28.9146 32.289 28.9146 33.317C28.9146 34.5427 29.2415 35.4818 29.8898 36.1099C30.5901 36.8099 31.5808 37.1649 32.8355 37.1649C34.0521 37.1649 35.0191 36.8504 35.7084 36.2303C36.4687 35.542 36.8384 34.6416 36.8384 33.4779C36.8384 32.3824 36.5334 31.4641 35.9297 30.7488C35.2859 29.9751 34.2551 29.5824 32.871 29.5824ZM32.9011 36.0102C32.0606 36.0102 31.4287 35.6786 31.0235 35.0253C30.7776 34.6389 30.6593 34.1069 30.6593 33.3979C30.6593 31.199 31.8694 30.7371 32.8847 30.7371H32.8893C33.8954 30.7542 35.0947 31.2232 35.0947 33.3655C35.0947 35.551 33.9018 36.0102 32.9011 36.0102ZM42.3856 29.5824C41.0698 29.5923 40.0527 29.9823 39.3634 30.7416C38.7433 31.4218 38.4292 32.289 38.4292 33.317C38.4292 34.5427 38.7561 35.4818 39.4044 36.1099C40.1046 36.8099 41.0953 37.1649 42.3501 37.1649C43.5666 37.1649 44.5337 36.8504 45.223 36.2303C45.9833 35.542 46.353 34.6416 46.353 33.4779C46.353 32.3824 46.0479 31.4641 45.4442 30.7488C44.8005 29.9751 43.7697 29.5824 42.3856 29.5824ZM42.4157 36.0102C41.5752 36.0102 40.9433 35.6786 40.5381 35.0253C40.2922 34.6389 40.1738 34.1069 40.1738 33.3979C40.1738 31.199 41.384 30.7371 42.3993 30.7371H42.4029C43.4091 30.7542 44.6083 31.2232 44.6083 33.3655C44.6092 35.551 43.4164 36.0102 42.4157 36.0102ZM54.672 30.3201C54.3524 30.0748 54.0155 29.9077 53.6704 29.825C53.3089 29.7387 52.7616 29.6947 52.045 29.6947H48.4673V40H50.1628V37.0516H52.34C52.9619 37.0516 53.4919 36.9753 53.9153 36.8243C54.3296 36.6769 54.702 36.437 55.0235 36.1108C55.6709 35.4521 55.9996 34.5715 55.9996 33.494C55.9987 32.0661 55.5525 30.9977 54.672 30.3201ZM53.4728 35.3479C53.1003 35.6911 52.5203 35.8646 51.7509 35.8646H50.1628V30.8818H51.8984C52.6423 30.8818 53.226 31.1001 53.633 31.5315C54.0346 31.9574 54.2385 32.564 54.2385 33.3332C54.2376 34.23 53.979 34.9094 53.4728 35.3479ZM3.40946 10.0088H24.929C25.2659 10.0088 25.5409 9.74008 25.5409 9.40849V0.60297C25.5409 0.269584 25.2668 0 24.929 0H3.40946C3.07254 0 2.79846 0.268686 2.79846 0.60297V9.40849C2.79846 9.74097 3.07254 10.0088 3.40946 10.0088ZM6.37792 5.98297H20.8087V4.02489H6.37792V1.95718H21.9587V8.05158H6.37792V5.98297ZM5.0321 13.8216H12.6782V15.5254H3.3184V17.4825H12.6782V19.2124H1.96619V21.1695H26.3723V19.2124H16.2585V17.4825H25.4298V15.5254H16.2585V13.8216H25.6238V11.8644H16.2585V10.8049H12.6782V11.8644H6.27321C6.36882 11.5418 6.43893 11.1832 6.47718 10.7897H2.79846C2.79846 10.7897 2.69557 13.0065 0.818875 12.9454V14.9197C0.818875 14.9188 3.34481 15.2522 5.0321 13.8216ZM41.9176 19.136H38.7861V14.3661H41.8593V12.3523H38.7861V9.27729C41.1828 9.21888 41.8338 7.95004 41.8666 6.50417C41.8866 5.00438 41.8429 3.48213 41.8456 0.928268C41.8456 0.423247 41.6562 0.259699 41.2501 0.259699C40.9569 0.259699 31.3786 0.25251 31.3786 0.25251V9.22966C31.3786 9.22966 35.1384 9.23955 35.5946 9.24674V19.1351H34.6949V10.5731H31.5034V19.1351H30.6092V21.1489H41.9176V19.136ZM37.7253 7.30753C36.6781 7.30753 34.5693 7.28416 34.5693 7.28416V2.23036C35.6829 2.22587 38.2525 2.21688 38.3709 2.21598C38.5221 2.21508 38.6477 2.23216 38.6632 2.49096C38.7024 4.19024 38.7115 5.28295 38.7005 6.00004C38.7005 6.85553 38.7124 7.30753 37.7253 7.30753ZM54.6592 12.568C54.3569 12.568 42.7562 12.568 42.7562 12.568V21.0995C42.7562 21.0995 50.6691 21.1273 52.1369 21.1192C54.3178 21.1498 55.4077 20.5828 55.4696 18.817C55.4341 17.6479 55.4906 16.2973 55.507 13.2366C55.5097 12.7316 55.0653 12.568 54.6592 12.568ZM52.2963 18.0388C52.2963 19.0237 51.8911 19.1558 50.8922 19.1558C49.9671 19.1584 45.9505 19.1513 45.9505 19.1513L45.9478 14.5405C47.4238 14.5369 51.9048 14.5261 52.0304 14.5252C52.1816 14.5243 52.3227 14.5405 52.3227 14.8011C52.3136 16.5884 52.3163 17.2031 52.2963 18.0388ZM52.1133 7.6508C54.7257 5.50042 55.5643 2.89893 55.5152 1.63548C55.5152 1.01274 54.9661 1.09451 54.9661 1.09451H49.3952C49.5555 0.757532 49.6975 0.396289 49.8123 0C48.1732 0 45.752 0 45.752 0C45.3149 2.35527 42.3301 2.88185 42.3301 2.88185V5.03224C42.3301 5.03224 43.5293 5.03763 44.7404 4.76175C45.1374 5.28026 45.7247 6.27143 47.0814 7.46479C44.5236 8.49729 42.311 8.91155 42.311 8.91155C42.311 8.91155 42.311 10.2541 42.3237 11.5625C45.3313 11.115 47.6788 10.1139 49.5081 9.21349C51.261 10.2442 53.4309 11.3477 56.0005 11.5885C56.0005 10.5911 56.0005 9.18024 56.0005 9.18024C56.0005 9.18024 54.1448 8.63748 52.1133 7.6508ZM49.4772 5.97758C48.4027 5.13019 47.8363 4.46971 47.3692 3.52706C47.6378 3.39496 48.0403 3.08314 48.0813 3.05169C48.9354 3.05079 51.7991 3.05259 51.9767 3.05259C52.1861 3.05259 52.2417 3.13257 52.1287 3.3078C51.5496 4.09948 50.4988 5.39887 49.4772 5.97758Z" fill="#1B83F8"/>
</svg>
