<svg width="32" height="32" viewBox="0 0 32 32" fill="none" xmlns="http://www.w3.org/2000/svg">
<path d="M14.949 17.3496L14.6325 16.6696C14.344 16.804 14.1716 17.1058 14.2026 17.4226C14.2336 17.7394 14.4611 18.0021 14.7702 18.078L14.949 17.3496ZM9.0335 17.3429L9.20637 18.0727C9.51688 17.9992 9.74685 17.7372 9.77955 17.4198C9.81225 17.1024 9.64053 16.799 9.35154 16.6637L9.0335 17.3429ZM1.90186 26.145L1.15366 26.197L1.90186 26.145ZM22.0327 26.0729L21.2827 26.0752L22.0327 26.0729ZM18.2484 11C18.2484 13.5094 16.7695 15.6749 14.6325 16.6696L15.2655 18.0295C17.9116 16.7978 19.7484 14.1142 19.7484 11H18.2484ZM11.9984 4.75C15.4502 4.75 18.2484 7.54822 18.2484 11H19.7484C19.7484 6.71979 16.2786 3.25 11.9984 3.25V4.75ZM5.7484 11C5.7484 7.54822 8.54662 4.75 11.9984 4.75V3.25C7.71819 3.25 4.2484 6.71979 4.2484 11H5.7484ZM9.35154 16.6637C7.22138 15.6663 5.7484 13.5044 5.7484 11H4.2484C4.2484 14.108 6.07791 16.7871 8.71546 18.0222L9.35154 16.6637ZM2.65006 26.0931C2.49671 23.8842 3.18773 22.1245 4.3666 20.7984C5.55702 19.4593 7.27607 18.53 9.20637 18.0727L8.86063 16.6131C6.69462 17.1262 4.68052 18.1876 3.24553 19.8018C1.79899 21.4291 0.972345 23.5853 1.15366 26.197L2.65006 26.0931ZM2.8568 26.25C2.79376 26.25 2.73954 26.2267 2.70281 26.1944C2.66825 26.1639 2.6526 26.1297 2.65006 26.0931L1.15366 26.197C1.21781 27.1209 2.00883 27.75 2.8568 27.75V26.25ZM21.0708 26.25H2.8568V27.75H21.0708V26.25ZM21.2827 26.0752C21.2828 26.1166 21.2675 26.1546 21.2319 26.1884C21.1941 26.2242 21.1374 26.25 21.0708 26.25V27.75C21.9686 27.75 22.7857 27.0467 22.7827 26.0706L21.2827 26.0752ZM14.7702 18.078C18.4606 18.9838 21.2691 21.7132 21.2827 26.0752L22.7827 26.0706C22.7666 20.8975 19.3609 17.6603 15.1278 16.6212L14.7702 18.078Z" fill="white"/>
<rect x="24" y="18" width="6" height="1.5" rx="0.75" fill="white"/>
<rect x="24" y="13" width="6" height="1.5" rx="0.75" fill="white"/>
<rect x="24" y="23" width="6" height="1.5" rx="0.75" fill="white"/>
<rect x="11.25" y="19" width="1.5" height="4" rx="0.75" fill="white"/>
</svg>
