<svg width="32" height="32" viewBox="0 0 32 32" fill="none" xmlns="http://www.w3.org/2000/svg">
<path fill-rule="evenodd" clip-rule="evenodd" d="M19 11C19 13.8258 17.3256 16.2606 14.9147 17.3662C18.7441 18.3706 21.5995 21.4038 21.9607 25.9995C22.004 26.5501 21.5502 27 20.998 27H3.00074C2.44846 27 1.99475 26.5501 2.03802 25.9995C2.39921 21.4035 5.25501 18.3702 9.08478 17.3659C6.67422 16.2603 5 13.8256 5 11C5 7.13401 8.13401 4 12 4C15.866 4 19 7.13401 19 11ZM12 19C11.5858 19 11.25 19.3358 11.25 19.75V22.25C11.25 22.6642 11.5858 23 12 23C12.4142 23 12.75 22.6642 12.75 22.25V19.75C12.75 19.3358 12.4142 19 12 19ZM23.75 18C23.3358 18 23 18.3358 23 18.75C23 19.1642 23.3358 19.5 23.75 19.5H29.25C29.6642 19.5 30 19.1642 30 18.75C30 18.3358 29.6642 18 29.25 18H23.75ZM23 13.75C23 13.3358 23.3358 13 23.75 13H29.25C29.6642 13 30 13.3358 30 13.75C30 14.1642 29.6642 14.5 29.25 14.5H23.75C23.3358 14.5 23 14.1642 23 13.75ZM23.75 23C23.3358 23 23 23.3358 23 23.75C23 24.1642 23.3358 24.5 23.75 24.5H29.25C29.6642 24.5 30 24.1642 30 23.75C30 23.3358 29.6642 23 29.25 23H23.75Z" fill="white"/>
</svg>
