<svg width="36" height="36" viewBox="0 0 36 36" fill="none" xmlns="http://www.w3.org/2000/svg">
<g clip-path="url(#clip0_71_2498)">
<path d="M36 18C36 22.7739 34.1036 27.3523 30.7279 30.7279C27.3523 34.1036 22.7739 36 18 36C13.2261 36 8.64773 34.1036 5.27208 30.7279C1.89642 27.3523 0 22.7739 0 18C0 13.2261 1.89642 8.64773 5.27208 5.27208C8.64773 1.89642 13.2261 0 18 0C22.7739 0 27.3523 1.89642 30.7279 5.27208C34.1036 8.64773 36 13.2261 36 18V18Z" fill="#F7F2EF"/>
<path d="M24 13.0586C24 13.8465 23.8448 14.6267 23.5433 15.3547C23.2417 16.0827 22.7998 16.7441 22.2426 17.3012C21.6855 17.8584 21.0241 18.3003 20.2961 18.6019C19.5681 18.9034 18.7879 19.0586 18 19.0586C17.2121 19.0586 16.4319 18.9034 15.7039 18.6019C14.9759 18.3003 14.3145 17.8584 13.7574 17.3012C13.2002 16.7441 12.7583 16.0827 12.4567 15.3547C12.1552 14.6267 12 13.8465 12 13.0586C12 11.4673 12.6321 9.94117 13.7574 8.81595C14.8826 7.69073 16.4087 7.05859 18 7.05859C19.5913 7.05859 21.1174 7.69073 22.2426 8.81595C23.3679 9.94117 24 11.4673 24 13.0586Z" fill="#E6E1DF"/>
<path d="M18 20.2588C12.6984 20.2588 8.39998 22.6768 8.39998 25.6588C8.39998 28.6408 12.6984 31.0588 18 31.0588C23.3016 31.0588 27.6 28.6408 27.6 25.6588C27.6 22.6768 23.3016 20.2588 18 20.2588Z" fill="#E6E1DF"/>
</g>
<defs>
<clipPath id="clip0_71_2498">
<rect width="36" height="36" fill="white" transform="matrix(-1 0 0 1 36 0)"/>
</clipPath>
</defs>
</svg>
