<svg width="64" height="64" viewBox="0 0 64 64" fill="none" xmlns="http://www.w3.org/2000/svg">
<rect width="64" height="64" rx="4" fill="#EBEFFB"/>
<path fill-rule="evenodd" clip-rule="evenodd" d="M16 14C14.3431 14 13 15.3431 13 17V39C13 40.6569 14.3431 42 16 42H48C49.6569 42 51 40.6569 51 39V17C51 15.3431 49.6569 14 48 14H16ZM25 24C25 23.4477 24.5523 23 24 23H23C22.4477 23 22 23.4477 22 24V35C22 35.5523 22.4477 36 23 36H24C24.5523 36 25 35.5523 25 35L25 24ZM32.5 27C33.0523 27 33.5 27.4477 33.5 28V35C33.5 35.5523 33.0523 36 32.5 36H31.5C30.9477 36 30.5 35.5523 30.5 35V28C30.5 27.4477 30.9477 27 31.5 27H32.5ZM42 22C42 21.4477 41.5523 21 41 21H40C39.4477 21 39 21.4477 39 22V35C39 35.5523 39.4477 36 40 36H41C41.5523 36 42 35.5523 42 35V22Z" fill="#5B6EE9"/>
<rect x="21" y="47" width="22" height="3" rx="1.5" fill="#5B6EE9"/>
<path d="M27.5714 40H36.4286L38 48H26L27.5714 40Z" fill="#5B6EE9"/>
</svg>
