<svg width="64" height="64" viewBox="0 0 64 64" fill="none" xmlns="http://www.w3.org/2000/svg">
<rect width="64" height="64" rx="4" fill="#E9F1FF"/>
<path d="M17 18L43.5623 12.7313C44.5788 12.5296 45.5809 13.1379 45.8713 14.1327L47 18L17 18Z" fill="#548FF8"/>
<path fill-rule="evenodd" clip-rule="evenodd" d="M13 21C11.8954 21 11 21.8954 11 23V30C14.3137 30 17 32.6863 17 36C17 39.3137 14.3137 42 11 42V49C11 50.1046 11.8954 51 13 51H51C52.1046 51 53 50.1046 53 49V42C49.6863 42 47 39.3137 47 36C47 32.6863 49.6863 30 53 30V23C53 21.8954 52.1046 21 51 21H13ZM37.7712 36.18L37.7758 36.1843C38.5888 36.9861 39.0023 38.038 39 39.3076C39 41.1117 38.1893 42.4826 36.5912 43.3814C35.7921 43.8254 34.8629 44.125 33.8153 44.2781L33.8246 45.4353C33.8246 45.7435 33.5575 45.9935 33.2253 45.9935L30.7956 46C30.4634 46 30.194 45.7521 30.194 45.4439L30.1847 44.2673C29.5993 44.1789 29.0743 44.0496 28.6121 43.8772C27.9942 43.6444 27.3972 43.2866 26.8374 42.8124C26.1382 42.2239 25.6458 41.5708 25.381 40.8703C25.1278 40.2042 25 39.4434 25 38.607C25 38.26 25.3043 37.9755 25.6806 37.9776H27.6969C28.0732 37.9776 28.3775 38.26 28.3775 38.6092C28.3775 39.6158 28.7445 40.34 29.4994 40.8207C30.1336 41.2238 31 41.4286 32.0801 41.4286C33.3577 41.4286 34.3078 41.2216 34.9094 40.8121C35.3554 40.5082 35.5621 40.1159 35.5621 39.577C35.5621 39.0209 35.4158 38.6394 35.1161 38.4152C34.856 38.2191 34.2218 37.9151 32.7003 37.5854L29.4413 36.8913C28.4797 36.6779 27.6922 36.3546 27.1022 35.9321C26.0592 35.1777 25.5319 34.1237 25.5319 32.8002C25.5319 31.3625 26.029 30.1576 27.007 29.2157C27.8177 28.4397 28.8676 27.9418 30.1405 27.7263L30.1312 26.5647C30.1312 26.2565 30.3984 26.0065 30.7305 26.0065L33.1603 26C33.4924 26 33.7619 26.2479 33.7619 26.5561L33.7712 27.7672C35.3577 28.0388 36.5703 28.6445 37.3902 29.5821C38.1661 30.4594 38.561 31.5888 38.561 32.9382C38.561 33.2874 38.2567 33.5697 37.8804 33.5697H35.8664C35.4901 33.5697 35.1858 33.2874 35.1858 32.9382C35.1858 32.1062 34.8746 31.5307 34.2079 31.1254L34.2032 31.1233C33.6109 30.7568 32.8444 30.5715 31.9245 30.5715C31.0976 30.5715 30.4239 30.6986 29.9222 30.9487C29.2764 31.2741 28.9744 31.7764 28.9744 32.5286C28.9744 33.0395 29.1649 33.2486 29.3089 33.3606L29.3136 33.3628C29.5389 33.5439 29.8804 33.684 30.331 33.7831L34.8722 34.7488C36.101 35.0225 37.079 35.5053 37.7712 36.18Z" fill="#548FF8"/>
</svg>
