<svg width="64" height="64" viewBox="0 0 64 64" fill="none" xmlns="http://www.w3.org/2000/svg">
<rect width="64" height="64" rx="4" fill="#FBE9EA"/>
<path fill-rule="evenodd" clip-rule="evenodd" d="M11 19C11 17.8954 11.8954 17 13 17H51C52.1046 17 53 17.8954 53 19V26C49.6863 26 47 28.6863 47 32C47 35.3137 49.6863 38 53 38V45C53 46.1046 52.1046 47 51 47H13C11.8954 47 11 46.1046 11 45V38C14.3137 38 17 35.3137 17 32C17 28.6863 14.3137 26 11 26V19ZM23 27.5C23 26.6716 23.6716 26 24.5 26H39.5C40.3284 26 41 26.6716 41 27.5C41 28.3284 40.3284 29 39.5 29H24.5C23.6716 29 23 28.3284 23 27.5ZM24.5 35C23.6716 35 23 35.6716 23 36.5C23 37.3284 23.6716 38 24.5 38H39.5C40.3284 38 41 37.3284 41 36.5C41 35.6716 40.3284 35 39.5 35H24.5Z" fill="#F55656"/>
</svg>
