<svg width="64" height="64" viewBox="0 0 64 64" fill="none" xmlns="http://www.w3.org/2000/svg">
<rect width="64" height="64" rx="4" fill="#E9F1FF"/>
<path d="M49.293 38.566H36.3149C35.3634 38.566 34.6022 37.8059 34.6022 36.8557C34.6022 35.9056 35.3634 35.1455 36.3149 35.1455H49.293C50.2445 35.1455 51.0056 35.9056 51.0056 36.8557C51.0056 37.8059 50.2445 38.566 49.293 38.566ZM49.293 44.3048H36.3149C35.3634 44.3048 34.6022 43.5447 34.6022 42.5945C34.6022 41.6444 35.3634 40.8843 36.3149 40.8843H49.293C50.2445 40.8843 51.0056 41.6444 51.0056 42.5945C51.0056 43.5447 50.2445 44.3048 49.293 44.3048ZM49.293 50.0056H36.3149C35.3634 50.0056 34.6022 49.2455 34.6022 48.2954C34.6022 47.3452 35.3634 46.5851 36.3149 46.5851H49.293C50.2445 46.5851 51.0056 47.3452 51.0056 48.2954C51.0056 49.2455 50.2445 50.0056 49.293 50.0056Z" fill="#548FF8"/>
<path d="M50.1303 24.3138L46.8572 18.689C46.2102 17.6248 44.8401 17.2067 43.7364 17.7768L41.0723 18.841C40.0827 18.0809 38.979 17.4728 37.7992 17.0167L37.4186 14.2423C37.3425 12.9501 36.3149 12 35.059 12H28.4367C27.1807 12 26.1531 12.9501 26.077 14.2043L25.6964 16.9787C24.5547 17.4728 23.451 18.0809 22.4234 18.803L19.7592 17.7388C18.6555 17.1687 17.2854 17.5868 16.6384 18.651L13.3273 24.3138C12.7183 25.3779 13.0609 26.7841 14.1265 27.4302L16.372 29.1405C16.2197 30.3566 16.2197 31.6108 16.372 32.827L14.0884 34.5372C13.0228 35.1833 12.6803 36.5895 13.3273 37.6537L16.6384 43.2785C17.2854 44.3426 18.6555 44.7607 19.7973 44.1906L22.4234 43.1265C23.4129 43.8866 24.5166 44.4946 25.6584 44.9507L26.039 47.7251C26.1151 48.9793 27.1427 49.9674 28.3986 49.9294H31.0247C31.4053 49.9294 31.6717 49.6254 31.7098 49.2833V47.8391V38.6798C27.4852 38.7178 24.0218 35.2593 24.0218 31.0027C24.0218 26.7461 27.4852 23.2876 31.7478 23.2876C36.0104 23.2876 39.4738 26.7461 39.4738 31.0027C39.4738 31.5728 39.3977 32.1429 39.2835 32.713H46.667C46.9334 32.713 47.1617 32.4849 47.1998 32.2189C47.2759 31.1927 47.2759 30.2046 47.1237 29.1785L49.3691 27.4682C50.4348 26.7841 50.7773 25.3779 50.1303 24.3138Z" fill="#548FF8"/>
</svg>
