<svg width="64" height="64" viewBox="0 0 64 64" fill="none" xmlns="http://www.w3.org/2000/svg">
<rect width="64" height="64" rx="4" fill="#FCEFDD"/>
<path fill-rule="evenodd" clip-rule="evenodd" d="M52.3286 28.5343C52.731 29.2796 52.6203 30.1977 52.0521 30.8259L33.4834 51.3596C32.6894 52.2377 31.3106 52.2377 30.5166 51.3596L11.9523 30.8309C11.382 30.2002 11.2728 29.2778 11.6801 28.5314L18.4949 16.042C18.8454 15.3997 19.5188 15 20.2505 15H43.828C44.5629 15 45.2386 15.4031 45.5878 16.0498L52.3286 28.5343ZM21.5 27C20.6716 27 20 27.6716 20 28.5C20 29.3284 20.6716 30 21.5 30H42.5C43.3284 30 44 29.3284 44 28.5C44 27.6716 43.3284 27 42.5 27H21.5Z" fill="#FF6307"/>
</svg>
