<svg width="64" height="64" viewBox="0 0 64 64" fill="none" xmlns="http://www.w3.org/2000/svg">
<rect width="64" height="64" rx="4" fill="#E6F9F4"/>
<path d="M32.0479 12C38.5105 15.0175 43.6872 16.6933 47.5781 17.0274C48.3825 17.0963 49 17.7658 49 18.5686V33.5266C47.6322 42.5354 41.9655 48.6932 32 52C21.9058 48.6808 16.2391 42.523 15 33.5267V18.5991C15 17.7848 15.6348 17.1099 16.4518 17.0555C20.4791 16.7873 25.6778 15.1022 32.0479 12V12ZM32.1037 20.0413C28.4367 20.0413 25.4695 23.0215 25.4695 26.6912C25.4695 29.8827 27.7137 32.5526 30.7105 33.1944L30.7561 42.625L30.7567 42.6566C30.777 43.3821 31.3765 43.9622 32.1101 43.9587C32.8544 43.9552 33.4548 43.3523 33.4512 42.6121L33.443 40.9189L35.8388 40.9127L35.8706 40.9123C36.6001 40.8936 37.1848 40.2987 37.1829 39.5691C37.181 38.8289 36.5761 38.2304 35.8319 38.2323L33.43 38.2385L33.424 36.9966L35.8388 36.9904L35.8706 36.99C36.6001 36.9713 37.1848 36.3764 37.1829 35.6468C37.181 34.9066 36.5761 34.3081 35.8319 34.31L33.4111 34.3162L33.4058 33.2132C36.4481 32.6065 38.7378 29.9149 38.7378 26.6913C38.7378 23.0215 35.7706 20.0413 32.1037 20.0413ZM32.1037 22.7217C34.2762 22.7217 36.0427 24.496 36.0427 26.6912C36.0427 28.7452 34.4963 30.4307 32.5178 30.6391C32.3666 30.5836 32.2065 30.5557 32.0454 30.5567C31.8934 30.5574 31.7474 30.5831 31.6113 30.6299C29.6705 30.386 28.1646 28.7181 28.1646 26.6912C28.1646 24.496 29.9312 22.7217 32.1037 22.7217Z" fill="#26C981"/>
</svg>
